/* XPM */
static char *icon[] = {
/* columns rows colors chars-per-pixel */
"32 32 4 1",
"  c #2C6EBD",
". c #417CC4",
"X c #5F91CD",
"o c gray100",
/* pixels */
"                                ",
"                                ",
"  XXXXXXXXXXXXXXXXXXXXXXXXXXXX  ",
"  XXXXXXXXXXXXXXXXXXXXXXXXXXXX  ",
"  XXXXXXXXXXXXXXXXXXXXXXXXXXXX  ",
"  XXXXXXXXXXXXXXXXXXXXXXXXXXXX  ",
"  XXXXXX..          ..XXXXXXXX  ",
"  XXXXXX..          ..XXXXXXXX  ",
"  XXXXXX  oooooooooo  ..XXXXXX  ",
"  XXXXXX  oooooooooo  ..XXXXXX  ",
"  XXXXXX  oooo    oooo  XXXXXX  ",
"  XXXXXX  oooo    oooo  XXXXXX  ",
"    XXXX  oooo    oooo  XXXX    ",
"    XXXX  oooo    oooo  XXXX    ",
"          oooooooooooo          ",
"          oooooooooooo          ",
"          oooo      oooo        ",
"          oooo      oooo        ",
"          oooo      oooo        ",
"          oooo      oooo        ",
"          oooo      oooo        ",
"          oooo      oooo        ",
"          oooooooooooo          ",
"          oooooooooooo          ",
"                                ",
"                                ",
"                                ",
"                                ",
"                                ",
"                                ",
"                                ",
"                                "
};
